<?xml version="1.0" encoding="UTF-8" standalone="no"?>
<!-- Created with Inkscape (http://www.inkscape.org/) -->

<svg
   width="43.16761mm"
   height="43.167614mm"
   viewBox="0 0 43.16761 43.167614"
   version="1.1"
   id="svg4060"
   inkscape:version="1.1 (c68e22c387, 2021-05-23)"
   sodipodi:docname="coffeeBean.svg"
   xmlns:inkscape="http://www.inkscape.org/namespaces/inkscape"
   xmlns:sodipodi="http://sodipodi.sourceforge.net/DTD/sodipodi-0.dtd"
   xmlns="http://www.w3.org/2000/svg"
   xmlns:svg="http://www.w3.org/2000/svg">
  <sodipodi:namedview
     id="namedview4062"
     pagecolor="#ffffff"
     bordercolor="#666666"
     borderopacity="1.0"
     inkscape:pageshadow="2"
     inkscape:pageopacity="0.0"
     inkscape:pagecheckerboard="0"
     inkscape:document-units="mm"
     showgrid="false"
     inkscape:zoom="0.7465348"
     inkscape:cx="59.608742"
     inkscape:cy="228.38855"
     inkscape:window-width="1920"
     inkscape:window-height="1001"
     inkscape:window-x="-9"
     inkscape:window-y="-9"
     inkscape:window-maximized="1"
     inkscape:current-layer="layer1"
     fit-margin-top="0"
     fit-margin-left="0"
     fit-margin-right="0"
     fit-margin-bottom="0" />
  <defs
     id="defs4057" />
  <g
     inkscape:label="Layer 1"
     inkscape:groupmode="layer"
     id="layer1"
     transform="translate(-83.32312,-115.22049)">
    <g
       id="g3104"
       transform="translate(-149.35333,41.112714)">
      <path
         style="fill:#372720;fill-opacity:1;stroke-width:3.161"
         d="m 261.82822,81.748421 q 0.27197,-0.732193 1.5278,-1.115054 1.25582,-0.382861 1.88893,-0.360709 0.63311,0.02216 1.52029,0.572446 0.88718,0.550295 1.35937,1.166979 0.4722,0.616683 1.25451,1.898658 0.78232,1.281976 1.29554,2.164069 0.51322,0.882094 0.91056,1.901336 0.39735,1.019242 0.68643,2.59901 0.28908,1.579769 0.36822,2.858863 0.0791,1.279093 0.0503,2.499931 -0.0288,1.220838 -0.31861,2.33134 -0.28977,1.110501 -0.70177,2.31038 -0.412,1.19988 -1.02453,2.40527 -0.61252,1.20538 -1.12581,2.1195 -0.5133,0.91412 -0.98517,1.62034 -0.47188,0.70621 -1.09854,1.46033 -0.62667,0.75412 -1.522,1.53207 -0.89533,0.77794 -1.44988,1.21653 -0.55455,0.4386 -1.92496,1.37282 -1.37041,0.93423 -2.49984,1.47492 -1.12944,0.5407 -2.38196,1.0866 -1.25252,0.5459 -1.9223,0.58838 -0.66979,0.0425 -2.41123,0.11642 -1.74142,0.074 -2.17754,-0.46457 -0.43612,-0.53853 -0.53165,-1.2639 -0.0955,-0.72536 -0.0761,-2.04232 0.0195,-1.31697 0.0669,-1.80856 0.0475,-0.49159 0.48987,-1.73707 0.4424,-1.24548 0.85872,-2.45106 0.41633,-1.20558 0.73598,-2.10718 0.31965,-0.9016 1.36656,-1.65179 1.04691,-0.75018 1.44157,-1.38433 0.39466,-0.63414 0.97728,-1.764159 0.58261,-1.130019 0.9394,-2.996348 0.35678,-1.86633 0.7122,-3.261897 0.35541,-1.395567 0.74952,-2.679442 0.3941,-1.283874 0.68376,-2.111632 0.28965,-0.827757 0.75868,-2.284268 0.46904,-1.456512 0.85326,-2.268111 0.38424,-0.811599 0.65621,-1.543792"
         id="path3110" />
      <path
         style="fill:#372720;fill-opacity:1;stroke-width:3.161"
         d="m 248.84357,77.662029 q 0.86716,-0.384851 1.73271,-0.558091 0.86555,-0.173242 1.97334,-0.281218 1.1078,-0.10798 2.45312,0.01233 1.34533,0.120314 1.40925,0.90823 0.0639,0.787916 -0.1225,1.839994 -0.18642,1.052085 -0.41578,2.274654 -0.22936,1.222568 -0.38382,2.536149 -0.15445,1.31358 -0.37896,2.54052 -0.22451,1.22694 -0.67922,2.466318 -0.45471,1.239378 -1.08553,2.845772 -0.63082,1.606394 -0.96907,2.182121 -0.33826,0.575726 -0.93981,1.729217 -0.60156,1.153491 -0.79518,1.562923 -0.19362,0.409432 -0.83934,2.062426 -0.64573,1.652996 -1.2764,3.326696 -0.63067,1.67371 -1.04881,2.61688 -0.41814,0.94317 -0.95366,1.80517 -0.53553,0.86199 -1.0635,1.67087 -0.52796,0.80887 -0.88044,1.38491 -0.35248,0.57603 -1.27091,0.89235 -0.91844,0.31632 -1.8651,0.14679 -0.94666,-0.16953 -1.3469,-0.56458 -0.40025,-0.39505 -1.28303,-1.83467 -0.88278,-1.43962 -1.22008,-2.14978 -0.3373,-0.71015 -0.61263,-1.74652 -0.27532,-1.03636 -0.49603,-3.08739 -0.22071,-2.05102 -0.21214,-3.345556 0.009,-1.294535 4.2e-4,-2.851549 -0.008,-1.557014 0.23663,-2.751461 0.24477,-1.194448 0.65052,-2.948844 0.40575,-1.754396 0.72503,-2.491508 0.31928,-0.737113 0.71567,-1.505741 0.39639,-0.768628 1.32278,-2.000259 0.92639,-1.23163 1.48489,-1.843846 0.55849,-0.612216 1.4639,-1.535381 0.9054,-0.923165 1.49032,-1.365095 0.58492,-0.44193 2.09901,-0.999954 1.51409,-0.558025 2.38125,-0.942875"
         id="path3108" />
      <path
         style="fill:#ffffff;fill-opacity:1;stroke-width:3.161"
         d="m 232.67645,75.688274 v -1.580498 h 43.16761 V 117.27539 H 232.67645 V 75.688274 m 8.26831,36.189756 c 0.40355,0.23798 0.91854,0.21005 1.54497,-0.0838 0.62642,-0.29387 1.17092,-0.57273 1.63351,-0.8366 0.46258,-0.26387 0.93889,-0.83867 1.42893,-1.72438 0.49004,-0.88572 0.81099,-1.49049 0.96284,-1.81432 0.15185,-0.32383 0.4279,-1.04436 0.82814,-2.16159 0.40024,-1.11723 0.79402,-2.18808 1.18134,-3.21254 0.38732,-1.02446 0.71651,-1.78134 0.98757,-2.270628 0.27106,-0.489295 0.63704,-1.137825 1.09795,-1.945591 0.46091,-0.807767 0.80371,-1.449649 1.02839,-1.925646 0.22468,-0.475998 0.45438,-1.035351 0.68909,-1.678059 0.23471,-0.642707 0.5454,-1.404771 0.93209,-2.286192 0.38669,-0.88142 0.70481,-1.750297 0.95436,-2.606632 0.24955,-0.856334 0.53092,-1.855316 0.84409,-2.996945 0.31317,-1.141629 0.57783,-2.025668 0.79399,-2.652117 0.21616,-0.626449 0.42104,-1.230342 0.61465,-1.81168 0.1936,-0.581337 0.34179,-1.208484 0.44457,-1.881439 0.10277,-0.672955 0.0561,-1.30561 -0.13999,-1.897965 -0.1961,-0.592355 -0.64271,-0.91708 -1.33983,-0.974173 -0.69711,-0.05709 -1.44301,-0.08552 -2.2377,-0.08527 -0.79468,2.45e-4 -1.63745,0.06766 -2.52831,0.20224 -0.89085,0.134583 -1.64981,0.278938 -2.27687,0.433067 -0.62706,0.154129 -1.33481,0.422114 -2.12324,0.803954 -0.78843,0.38184 -1.4859,0.798079 -2.09239,1.248718 -0.60649,0.450638 -1.12765,0.91183 -1.56346,1.383575 -0.43582,0.471745 -0.92532,1.111142 -1.46851,1.918193 -0.54318,0.807051 -0.99765,1.472265 -1.36341,1.99564 -0.36575,0.523376 -0.67074,1.005892 -0.91497,1.447547 -0.24423,0.441654 -0.55264,1.072667 -0.92521,1.893039 -0.37257,0.820371 -0.685,1.731074 -0.93731,2.732107 -0.25231,1.001034 -0.44781,1.813379 -0.58652,2.437034 -0.13871,0.623655 -0.24308,1.52571 -0.31312,2.706164 -0.07,1.180454 -0.0577,2.20373 0.0371,3.069827 0.0948,0.866092 0.26019,1.887342 0.49618,3.063732 0.23599,1.17639 0.47706,2.11567 0.72319,2.81785 0.24613,0.70219 0.51034,1.44762 0.79262,2.23631 0.28228,0.78868 0.60569,1.59862 0.97023,2.42983 0.36454,0.83121 0.65896,1.31732 0.88325,1.45831 0.22429,0.141 0.53822,0.33049 0.94177,0.56846 m 12.61608,3.86248 c 0.96119,-0.0681 1.81968,-0.1897 2.57548,-0.36477 0.7558,-0.17508 1.42219,-0.39844 1.99918,-0.67009 0.57699,-0.27165 1.11899,-0.54933 1.626,-0.83305 0.50701,-0.28372 1.14517,-0.61599 1.9145,-0.99681 0.76931,-0.38083 1.48107,-0.82435 2.13526,-1.33057 0.65419,-0.50623 1.30503,-1.07891 1.95252,-1.71806 0.64749,-0.63914 1.14692,-1.05116 1.49829,-1.23606 0.35137,-0.18489 0.76535,-0.68121 1.24193,-1.48896 0.47659,-0.80775 0.89013,-1.53844 1.24063,-2.19209 0.35051,-0.65364 0.70725,-1.32715 1.07023,-2.02052 0.36297,-0.69337 0.67958,-1.38626 0.94983,-2.07866 0.27025,-0.69239 0.43828,-1.33904 0.50407,-1.939941 0.0658,-0.600901 0.15254,-1.507505 0.26022,-2.719814 0.10768,-1.212309 0.19618,-2.372532 0.26549,-3.48067 0.0693,-1.108138 0.0408,-1.905683 -0.0857,-2.392634 -0.12644,-0.486951 -0.35162,-1.084376 -0.67555,-1.792277 -0.32392,-0.707901 -0.64079,-1.388305 -0.95061,-2.04121 -0.30982,-0.652905 -0.76004,-1.3352 -1.35065,-2.046883 -0.59062,-0.711683 -1.10164,-1.247399 -1.53305,-1.607148 -0.43142,-0.359749 -0.93004,-0.749981 -1.49586,-1.170698 -0.56582,-0.420717 -1.06792,-0.680775 -1.50631,-0.780174 -0.43838,-0.0994 -0.94111,-0.16541 -1.50819,-0.198033 -0.56707,-0.03262 -1.02048,0.308538 -1.36021,1.023475 -0.33973,0.714939 -0.73379,1.537936 -1.18219,2.468989 -0.44839,0.931053 -0.80072,1.80891 -1.05698,2.63357 -0.25625,0.824661 -0.44451,1.423267 -0.56478,1.795818 -0.12026,0.372551 -0.27171,1.063254 -0.45436,2.072109 -0.18265,1.008856 -0.35597,1.911043 -0.51997,2.706562 -0.164,0.795519 -0.40189,1.804254 -0.71368,3.026205 -0.31178,1.221951 -0.63785,2.145219 -0.97822,2.769803 -0.34036,0.624581 -0.69351,1.089651 -1.05944,1.395211 -0.36593,0.30556 -0.73702,0.66938 -1.11328,1.09146 -0.37626,0.42209 -0.70427,0.93612 -0.98404,1.54211 -0.27977,0.60599 -0.69001,1.44985 -1.23072,2.5316 -0.54072,1.08175 -0.98455,2.07364 -1.33148,2.97568 -0.34693,0.90204 -0.59762,1.70636 -0.75206,2.41297 -0.15443,0.7066 -0.28896,1.41641 -0.40357,2.12944 -0.11461,0.71303 -0.15595,1.35818 -0.12401,1.93546 0.0319,0.57728 0.4165,0.83674 1.15369,0.77837 0.73718,-0.0584 1.58636,-0.12163 2.54755,-0.18969"
         id="path3106"
         sodipodi:nodetypes="cccccccsssssssssssssssssssssssssssssssssssssccsssssssssssssssssssssssssssssssssssssssc" />
    </g>
  </g>
</svg>
